<svg width="250" height="52" viewBox="0 0 250 52" fill="none" xmlns="http://www.w3.org/2000/svg">
<path d="M14.5 35.75L7.25 42.12V23.8333H14.5M26.5833 31.7633L22.7892 28.86L19.3333 31.72V15.1667H26.5833M38.6667 28.1667L31.4167 34.6667V6.5H38.6667M45.4575 27.755L41.0833 23.8333H53.1667V34.6667L48.8408 30.7883L31.4167 46.28L23.0308 39.7367L13.8958 47.6667H7.25L22.8858 33.93L31.4167 40.3867" fill="#19C7A9"/>
<path d="M75.922 29.208V26.136H82.29V29.208H75.922ZM73.17 16.28H76.882V39H73.17V16.28ZM75.922 16.28H83.89V19.288H75.922V16.28ZM86.7713 39V22.68H90.4833V39H86.7713ZM88.6273 20.504C87.9873 20.504 87.4539 20.3013 87.0273 19.896C86.6219 19.4693 86.4193 18.936 86.4193 18.296C86.4193 17.656 86.6219 17.1227 87.0273 16.696C87.4539 16.248 87.9873 16.024 88.6273 16.024C89.2673 16.024 89.8006 16.248 90.2273 16.696C90.6753 17.1227 90.8993 17.656 90.8993 18.296C90.8993 18.936 90.6753 19.4693 90.2273 19.896C89.8006 20.3013 89.2673 20.504 88.6273 20.504ZM94.6388 39V22.68H98.3508V39H94.6388ZM103.791 39V28.152H107.503V39H103.791ZM103.791 28.184C103.791 27.288 103.545 26.5733 103.055 26.04C102.564 25.5067 101.935 25.24 101.167 25.24L102.191 22.168C103.193 22.168 104.089 22.4347 104.879 22.968C105.689 23.48 106.329 24.1947 106.799 25.112C107.268 26.008 107.503 27.032 107.503 28.184H103.791ZM97.0068 28.344C97.0068 27.1707 97.2308 26.1147 97.6788 25.176C98.1481 24.2373 98.7668 23.5013 99.5348 22.968C100.324 22.4347 101.209 22.168 102.191 22.168L101.167 25.24C100.335 25.24 99.6521 25.528 99.1188 26.104C98.6068 26.6587 98.3508 27.4053 98.3508 28.344H97.0068ZM111.757 33.688V16.248L115.469 16.28V33.688H111.757ZM109.901 25.56V22.68H119.501V25.56H109.901ZM111.757 33.656H115.469C115.469 34.232 115.555 34.7333 115.725 35.16C115.896 35.5867 116.131 35.9173 116.429 36.152C116.749 36.3653 117.123 36.472 117.549 36.472L117.133 39.48C115.448 39.48 114.125 38.968 113.165 37.944C112.227 36.92 111.757 35.4907 111.757 33.656ZM118.989 35.928L120.397 38.392C119.885 38.776 119.352 39.0533 118.797 39.224C118.264 39.3947 117.709 39.48 117.133 39.48L117.549 36.472C117.827 36.472 118.083 36.4187 118.317 36.312C118.552 36.2053 118.776 36.0773 118.989 35.928ZM123.002 31.864V29.496H134.106V31.864H123.002ZM127.706 39.512V36.472H127.93V39.512H127.706ZM121.37 32.792V28.888H125.082V32.792H121.37ZM130.394 29.496V28.312H134.106V29.496H130.394ZM134.106 28.344H130.394C130.394 27.4053 130.138 26.648 129.626 26.072C129.135 25.496 128.495 25.208 127.706 25.208V22.168C128.922 22.168 130.01 22.4347 130.97 22.968C131.951 23.5013 132.719 24.2373 133.274 25.176C133.829 26.1147 134.106 27.1707 134.106 28.344ZM130.618 33.784L133.946 34.424C133.797 35.4267 133.445 36.312 132.89 37.08C132.357 37.848 131.663 38.4453 130.81 38.872C129.957 39.2987 128.986 39.512 127.898 39.512V36.472C128.602 36.472 129.199 36.248 129.69 35.8C130.202 35.3307 130.511 34.6587 130.618 33.784ZM121.37 28.888C121.37 27.608 121.647 26.4667 122.202 25.464C122.757 24.44 123.514 23.64 124.474 23.064C125.434 22.4667 126.511 22.168 127.706 22.168V25.208C126.895 25.208 126.255 25.528 125.786 26.168C125.317 26.808 125.082 27.7147 125.082 28.888H121.37ZM121.37 32.792H125.082C125.082 33.944 125.317 34.8507 125.786 35.512C126.255 36.152 126.895 36.472 127.706 36.472V39.512C126.511 39.512 125.434 39.224 124.474 38.648C123.514 38.0507 122.757 37.2507 122.202 36.248C121.647 35.224 121.37 34.072 121.37 32.792ZM136.721 32.824V28.856H140.433V32.824H136.721ZM136.721 28.888C136.721 27.5867 136.999 26.4347 137.553 25.432C138.108 24.4293 138.865 23.64 139.825 23.064C140.785 22.4667 141.863 22.168 143.057 22.168V25.176C142.247 25.176 141.607 25.5067 141.137 26.168C140.668 26.808 140.433 27.7147 140.433 28.888H136.721ZM145.745 27.896C145.639 26.9787 145.329 26.296 144.817 25.848C144.327 25.4 143.729 25.176 143.025 25.176V22.168C144.113 22.168 145.084 22.3813 145.937 22.808C146.791 23.2133 147.484 23.8 148.017 24.568C148.572 25.3147 148.924 26.2107 149.073 27.256L145.745 27.896ZM136.721 32.792H140.433C140.433 33.944 140.668 34.8507 141.137 35.512C141.607 36.152 142.247 36.472 143.057 36.472V39.512C141.863 39.512 140.785 39.224 139.825 38.648C138.865 38.0507 138.108 37.2507 137.553 36.248C136.999 35.224 136.721 34.072 136.721 32.792ZM145.745 33.784L149.073 34.424C148.924 35.4267 148.572 36.312 148.017 37.08C147.484 37.848 146.791 38.4453 145.937 38.872C145.084 39.2987 144.113 39.512 143.025 39.512V36.472C143.729 36.472 144.327 36.248 144.817 35.8C145.329 35.3307 145.639 34.6587 145.745 33.784ZM151.576 39V22.68H155.288V39H151.576ZM160.728 39V28.152H164.44V39H160.728ZM160.728 28.184C160.728 27.288 160.483 26.5733 159.992 26.04C159.502 25.5067 158.872 25.24 158.104 25.24L159.128 22.168C160.131 22.168 161.027 22.4347 161.816 22.968C162.627 23.48 163.267 24.1947 163.736 25.112C164.206 26.008 164.44 27.032 164.44 28.184H160.728ZM153.944 28.344C153.944 27.1707 154.168 26.1147 154.616 25.176C155.086 24.2373 155.704 23.5013 156.472 22.968C157.262 22.4347 158.147 22.168 159.128 22.168L158.104 25.24C157.272 25.24 156.59 25.528 156.056 26.104C155.544 26.6587 155.288 27.4053 155.288 28.344H153.944ZM151.576 39V15.768H155.288V39H151.576Z" fill="#302A38"/>
</svg>
