<svg width="250" height="52" viewBox="0 0 250 52" fill="none" xmlns="http://www.w3.org/2000/svg">
<path d="M14.5 35.75L7.25 42.12V23.8333H14.5M26.5833 31.7633L22.7892 28.86L19.3333 31.72V15.1667H26.5833M38.6667 28.1667L31.4167 34.6667V6.5H38.6667M45.4575 27.755L41.0833 23.8333H53.1667V34.6667L48.8408 30.7883L31.4167 46.28L23.0308 39.7367L13.8958 47.6667H7.25L22.8858 33.93L31.4167 40.3867" fill="#19C7A9"/>
<path d="M78.0625 20.25H92.8594V22.9688H81.1875V29.375H90.2031V32H81.1875V42H78.0625V20.25ZM100.406 21.1875C100.406 21.7812 100.208 22.2396 99.8125 22.5625C99.4271 22.875 98.9427 23.0312 98.3594 23.0312C97.776 23.0312 97.2917 22.875 96.9062 22.5625C96.5312 22.2396 96.3438 21.7812 96.3438 21.1875C96.3438 20.5833 96.5312 20.125 96.9062 19.8125C97.2917 19.5 97.776 19.3438 98.3594 19.3438C98.9427 19.3438 99.4271 19.5 99.8125 19.8125C100.208 20.125 100.406 20.5833 100.406 21.1875ZM96.75 25.875H99.875V42H96.75V25.875ZM112.062 28.3125C110.51 28.3125 109.13 28.8385 107.922 29.8906V42H104.797V25.875H107.688L107.906 27.625C109.604 26.2917 111.359 25.625 113.172 25.625C115.089 25.625 116.495 26.1979 117.391 27.3438C118.328 28.5521 118.797 30.5 118.797 33.1875V42H115.672V33.1875C115.672 30.6042 114.974 29.0625 113.578 28.5625C113.13 28.3958 112.625 28.3125 112.062 28.3125ZM129.281 39.5312C129.625 39.6562 130.146 39.7188 130.844 39.7188C131.542 39.7188 132.125 39.6354 132.594 39.4688V41.9688C132.375 42.0208 132.057 42.0521 131.641 42.0625L130.656 42.0938C130.438 42.0938 130.271 42.0938 130.156 42.0938C128.146 42.0938 126.661 41.4375 125.703 40.125C124.932 39.0625 124.547 37.6562 124.547 35.9062V28.2656H122.234V26.7969L124.547 25.875L125.297 21.875H127.672V25.875H132.672V28.2656H127.672V35.8906C127.672 37.9323 128.208 39.1458 129.281 39.5312ZM144.359 42.25C138.464 42.25 135.516 39.3698 135.516 33.6094C135.516 31.1302 136.333 29.1458 137.969 27.6562C139.438 26.3021 141.115 25.625 143 25.625C145.052 25.625 146.656 26.3125 147.812 27.6875C148.885 28.9688 149.422 30.6823 149.422 32.8281V34.0469H138.766C138.766 36.9948 139.969 38.7969 142.375 39.4531C142.948 39.6094 143.828 39.6875 145.016 39.6875C146.214 39.6875 147.385 39.526 148.531 39.2031V41.8438C147.385 42.1146 145.995 42.25 144.359 42.25ZM146.297 31.75C146.297 30.75 146.021 29.9062 145.469 29.2188C144.823 28.4271 143.932 28.0312 142.797 28.0312C141.599 28.0312 140.625 28.4115 139.875 29.1719C139.188 29.8802 138.844 30.7396 138.844 31.75H146.297ZM164.438 41.9531C163.812 42.151 162.729 42.25 161.188 42.25C159.646 42.25 158.333 42.0625 157.25 41.6875C156.177 41.3125 155.26 40.7604 154.5 40.0312C152.927 38.5208 152.141 36.4271 152.141 33.75C152.141 31.1562 153.083 29.1146 154.969 27.625C156.656 26.2917 158.729 25.625 161.188 25.625C162.708 25.625 163.75 25.6771 164.312 25.7812V28.5625C163.438 28.2812 162.438 28.1406 161.312 28.1406C160.198 28.1406 159.271 28.2969 158.531 28.6094C157.792 28.9115 157.188 29.3229 156.719 29.8438C155.833 30.8333 155.391 32.1354 155.391 33.75C155.391 36.4792 156.375 38.2969 158.344 39.2031C159.042 39.526 159.724 39.6875 160.391 39.6875C161.057 39.6875 161.568 39.6719 161.922 39.6406C162.286 39.6094 162.63 39.5677 162.953 39.5156C163.641 39.401 164.135 39.2812 164.438 39.1562V41.9531ZM176.078 28.3125C174.536 28.3125 173.161 28.8385 171.953 29.8906V42H168.828V18.75H171.953V27.6094C173.641 26.2865 175.385 25.625 177.188 25.625C179.115 25.625 180.526 26.1979 181.422 27.3438C182.359 28.5521 182.828 30.5 182.828 33.1875V42H179.703V33.1875C179.703 30.6042 179 29.0625 177.594 28.5625C177.146 28.3958 176.641 28.3125 176.078 28.3125Z" fill="#302A38"/>
</svg>
